<?xml version="1.0" encoding="utf-8"?>
<!-- Generator: Adobe Illustrator 18.0.0, SVG Export Plug-In . SVG Version: 6.00 Build 0)  -->
<!DOCTYPE svg PUBLIC "-//W3C//DTD SVG 1.1//EN" "http://www.w3.org/Graphics/SVG/1.1/DTD/svg11.dtd">
<svg version="1.1"
	 id="Layer_1" image-rendering="auto" text-rendering="auto" shape-rendering="auto" color-rendering="auto" color-interpolation="auto"
	 xmlns="http://www.w3.org/2000/svg" xmlns:xlink="http://www.w3.org/1999/xlink" x="0px" y="0px" viewBox="0 0 64 64"
	 enable-background="new 0 0 64 64" xml:space="preserve">
<g>
	<g>
		<path fill="#FFFFFF" d="M32,40c-1.4,0-2.7-0.3-4.1-1c-1.3-0.6-2.3-1.6-3-3c-0.6-1.3-1-2.7-1-4.1c0-1.4,0.3-2.7,1-4.1
			c0.6-1.3,1.6-2.3,3-3c1.3-0.6,2.7-1,4.1-1c1.4,0,2.7,0.3,4.1,1c1.3,0.6,2.3,1.6,3,3c0.6,1.3,1,2.7,1,4.1c0,1.4-0.3,2.7-1,4.1
			c-0.6,1.3-1.6,2.3-3,3C34.7,39.7,33.4,40,32,40z M32,36.8c1,0,1.9-0.2,2.6-0.6c0.7-0.4,1.2-0.9,1.6-1.6c0.4-0.7,0.6-1.5,0.6-2.6
			c0-1-0.2-1.9-0.6-2.6c-0.4-0.7-0.9-1.2-1.6-1.6c-0.7-0.4-1.5-0.6-2.6-0.6s-1.9,0.2-2.6,0.6c-0.7,0.4-1.2,0.9-1.6,1.6
			c-0.4,0.7-0.6,1.5-0.6,2.6c0,1,0.2,1.9,0.6,2.6c0.4,0.7,0.9,1.2,1.6,1.6C30.1,36.6,31,36.8,32,36.8z"/>
	</g>
</g>
</svg>
